<svg width="131" height="79" viewBox="0 0 131 79" fill="none" xmlns="http://www.w3.org/2000/svg">
<path fill-rule="evenodd" clip-rule="evenodd" d="M32.8612 0.58455C18.9932 3.06867 7.38346 13.0664 3.01974 26.283C2.35744 28.2893 1.87515 29.1808 1.06997 29.8879L0 30.8271V38.7087V46.59L1.05727 47.4863C1.87007 48.1753 2.35363 49.076 3.14801 51.3811C4.44151 55.1333 5.83057 57.8892 7.92448 60.8556C12.5273 67.3764 19.2211 72.5202 26.3935 75.0478C28.2007 75.6847 28.9062 76.1 29.1722 76.6842C29.8739 78.2238 31.1534 78.4387 38.9614 78.3282L46.0908 78.2276L47.0167 77.1906C48.301 75.7524 48.254 74.5068 46.863 73.1158L45.7835 72.0363L38.5286 72.0382C32.6003 72.0398 31.1013 72.13 30.3311 72.5316C29.457 72.9876 29.2494 72.973 27.4736 72.3297C20.7045 69.8777 14.0938 64.8142 10.2305 59.1217C8.57282 56.6792 6.61257 52.7174 5.71849 50.0034C5.04 47.9429 5.02793 47.7625 5.51498 46.9383C6.28555 45.634 6.28555 31.7637 5.51498 30.4594C5.02825 29.6352 5.03999 29.4542 5.71405 27.3943C6.69639 24.3936 9.19829 19.5987 11.0925 17.086C13.0204 14.5292 16.7446 10.9522 19.2478 9.25325C23.0816 6.65134 28.3442 4.44249 33.1787 3.40585C35.6432 2.87753 43.7318 2.87753 46.1963 3.40585C53.1952 4.90668 59.3836 8.06707 64.1769 12.5886C70.5495 18.6005 74.4512 26.6865 75.3091 35.6607C75.5104 37.7682 75.8107 39.6713 75.9765 39.8895C76.3918 40.4365 77.6256 40.3876 78.1091 39.805C78.4054 39.4481 78.4514 38.5245 78.2876 36.2331C77.4275 24.2231 71.595 13.8176 61.8788 6.96027C53.6775 1.17161 42.8565 -1.20583 32.8612 0.58455ZM19.471 16.8212C17.5063 17.5765 15.5734 19.4183 14.5828 21.4789C13.6058 23.5112 13.3601 28.0264 14.0929 30.4775C14.8079 32.8689 16.3827 34.8644 18.4363 35.9817C19.8244 36.7367 20.6407 36.9408 22.6974 37.0482C25.6769 37.2034 27.2294 36.8481 29.2941 35.5388C30.6819 34.6587 30.7975 34.4866 30.7975 33.3017C30.7975 32.231 30.6619 31.9561 29.9815 31.6459C29.2706 31.322 28.9284 31.4046 27.3218 32.2879C23.9878 34.1208 20.533 33.5357 18.9792 30.875C17.7168 28.7135 17.9683 23.5636 19.4262 21.71C21.1084 19.5717 24.2018 19.2647 27.2393 20.9347C28.923 21.8599 29.2684 21.9466 29.9815 21.6218C30.6603 21.3125 30.7975 21.036 30.7975 19.9778C30.7975 18.8503 30.6562 18.6119 29.5583 17.8854C26.844 16.089 22.5523 15.6363 19.471 16.8212ZM48.6483 16.6507C47.9457 17.1425 47.9425 17.1892 47.9425 26.6027C47.9425 35.3619 47.9854 36.0991 48.5232 36.5859C49.2938 37.2834 50.8899 37.2542 51.5445 36.5306C52.0087 36.0179 52.07 34.8511 52.07 26.5475C52.07 17.1911 52.0665 17.1425 51.3642 16.6507C50.9762 16.3789 50.365 16.1563 50.0062 16.1563C49.6475 16.1563 49.0363 16.3789 48.6483 16.6507ZM56.1975 16.3767C54.9888 16.8085 54.9275 17.3073 54.9275 26.6945C54.9275 35.4181 54.957 35.8709 55.5625 36.4763C56.3788 37.2926 57.9212 37.2926 58.7375 36.4763C59.3433 35.8706 59.3725 35.4181 59.3725 26.6338C59.3725 17.8496 59.3433 17.3971 58.7375 16.7913C58.1235 16.1773 57.1846 16.0239 56.1975 16.3767ZM35.2181 22.6806C33.7296 23.1394 32.8111 23.8846 32.6936 24.7288C32.418 26.7094 33.2775 27.1561 35.7362 26.3103C38.9204 25.2149 41.1388 25.6782 40.895 27.3879C40.808 27.9981 40.5406 28.0804 38.1 28.2477C34.7812 28.4757 33.2603 29.137 32.5336 30.6689C31.1452 33.5944 33.7068 37.1113 37.2259 37.1113C38.0905 37.1113 39.2767 36.884 39.8621 36.6062C40.8353 36.1446 40.9883 36.1446 41.6477 36.6062C42.5593 37.2447 43.4778 37.2485 44.3792 36.617C45.0545 36.1442 45.085 35.9198 45.085 31.4259C45.085 25.301 44.5237 23.6998 41.9995 22.6241C40.6987 22.0698 37.1037 22.0999 35.2181 22.6806ZM40.9575 31.3535C40.9575 32.2164 39.8269 33.515 38.8652 33.7563C37.7374 34.0395 36.5125 33.2147 36.5125 32.1726C36.5125 31.2023 37.3415 30.8096 39.4494 30.7813C40.7168 30.7645 40.9575 30.856 40.9575 31.3535ZM19.5262 41.5497C17.539 41.9742 16.6726 42.3853 15.3867 43.5144C13.9735 44.7555 13.335 46.1287 13.335 47.9276C13.335 50.9464 15.2927 52.673 20.14 53.9296C23.9789 54.925 24.766 55.3447 24.7602 56.3944C24.7507 58.0978 23.7325 58.7013 20.8677 58.7013C19.2326 58.7013 18.4512 58.5102 16.8824 57.7263C14.6225 56.597 13.662 56.6154 13.0966 57.799C12.4047 59.2468 13.0315 60.1784 15.4762 61.3366C17.4657 62.2789 17.8629 62.3526 20.955 62.3526C23.8138 62.3526 24.505 62.2462 25.8054 61.6058C28.4391 60.3088 29.8063 57.7053 29.2211 55.1009C28.7001 52.7828 26.9942 51.6112 22.1564 50.2498C18.4553 49.2084 17.78 48.8004 17.78 47.6047C17.78 46.4963 18.93 45.4772 20.5162 45.1797C21.8237 44.9342 24.2491 45.4994 25.3968 46.3166C26.7862 47.3059 27.7943 47.4171 28.5474 46.664C29.4996 45.7118 29.3675 44.7961 28.1057 43.6061C26.3144 41.9167 22.3063 40.9559 19.5262 41.5497ZM116.345 42.0066C115.825 42.3866 115.712 42.9308 115.619 45.4918L115.509 48.5261L114.508 47.9943C113.147 47.2723 110.341 47.3015 108.786 48.0543C105.584 49.605 104.237 54.6285 105.932 58.6969C107.283 61.9402 111.344 63.4642 114.436 61.8881C115.651 61.2686 115.663 61.2686 116.451 61.8881C117.465 62.6863 118.574 62.6818 119.38 61.8763C119.986 61.2702 120.015 60.8181 120.015 51.8932C120.015 42.5927 120.012 42.5422 119.309 42.0507C118.43 41.4344 117.154 41.4157 116.345 42.0066ZM33.1079 43.9436C32.6009 44.2986 32.3939 44.8174 32.3228 45.9093C32.2313 47.3126 32.1662 47.4079 31.115 47.6695C29.9133 47.9689 29.21 48.6566 29.21 49.5319C29.21 50.3581 30.0939 51.0813 31.1036 51.0813C31.6278 51.0813 32.0796 51.2899 32.1923 51.5836C32.2983 51.8599 32.385 53.5813 32.385 55.4092C32.385 58.9331 32.6546 59.8758 34.0217 61.1315C35.4352 62.4301 38.6658 62.9057 39.9523 62.0046C41.0159 61.2594 40.8076 59.5977 39.6081 59.2627C39.1281 59.1287 38.3419 58.9084 37.8619 58.7731L36.9888 58.5274V54.8837V51.2401L38.4175 51.1458C39.952 51.0445 40.64 50.4771 40.64 49.3132C40.64 48.3527 39.9301 47.8555 38.2956 47.6714C36.9065 47.5149 36.904 47.5123 36.7398 46.0563C36.4842 43.789 34.7602 42.7863 33.1079 43.9436ZM45.6654 47.7565C40.1714 49.505 39.2967 58.4899 44.3332 61.4414C48.3864 63.8166 55.7771 61.6744 54.3484 58.5385C54.0131 57.8022 53.8134 57.7044 52.9346 57.8441C52.3716 57.9336 51.2347 58.2508 50.4076 58.5489C48.5172 59.2306 46.9363 58.9782 46.0512 57.853C44.8066 56.2706 45.0294 56.1613 49.5075 56.1613C54.2452 56.1613 54.61 55.994 54.61 53.8198C54.61 51.8071 53.2609 49.3421 51.6423 48.3972C49.9307 47.3977 47.5837 47.1462 45.6654 47.7565ZM56.5121 47.652C54.6891 48.3264 54.7999 49.1284 57.6358 55.787C60.03 61.4087 60.7517 62.5113 62.0357 62.5113C63.3355 62.5113 64.0118 61.6214 65.3961 58.0892C66.1537 56.1556 66.8741 54.5738 66.9969 54.5738C67.1195 54.5738 67.8926 56.1982 68.7149 58.1838C70.1954 61.7595 70.806 62.5113 72.2284 62.5113C73.2866 62.5113 74.328 60.8045 76.6445 55.2733C78.8864 49.9206 79.0457 49.3964 78.6686 48.6058C78.3552 47.9489 77.9951 47.7254 77.1341 47.6527C75.6504 47.5279 75.331 47.94 73.6746 52.1132C72.9298 53.9903 72.2087 55.5263 72.0725 55.5263C71.9363 55.5263 71.2152 53.9903 70.4704 52.1132C68.8759 48.0956 68.5041 47.5888 67.1513 47.5888C65.7708 47.5888 65.3513 48.1537 63.7857 52.1212C63.0431 54.0027 62.3024 55.4975 62.1392 55.4432C61.976 55.3889 61.2219 53.8004 60.4631 51.9135C59.7046 50.0263 58.9299 48.2969 58.7416 48.0699C58.252 47.4803 57.4056 47.3215 56.5121 47.652ZM84.2667 47.5828C80.9625 48.2781 79.6607 49.4865 80.3275 51.2401C80.6863 52.1837 81.8455 52.2958 83.6124 51.5576C84.2391 51.2957 85.4745 51.0813 86.3578 51.0813C87.7919 51.0813 87.9964 51.169 88.2752 51.9018C88.4466 52.3529 88.5177 52.8343 88.433 52.9714C88.3482 53.1086 87.1455 53.3194 85.7599 53.4404C82.4684 53.7274 80.6596 54.6113 80.0564 56.2271C78.5727 60.1999 83.4425 64.0363 87.3827 61.9989C88.2948 61.5271 88.4431 61.5271 89.2416 61.9989C90.4122 62.6904 91.3076 62.6437 92.102 61.8494C92.7278 61.2236 92.7579 60.9089 92.6576 56.055C92.5398 50.3644 92.2169 49.2776 90.3176 48.1772C89.1765 47.5161 86.0444 47.2085 84.2667 47.5828ZM96.9962 47.5155C95.6764 47.7793 95.5675 48.3569 95.5675 55.0926C95.5675 61.3776 95.5834 61.5341 96.2733 62.017C97.2179 62.679 98.1954 62.6402 99.1041 61.9049C99.8087 61.3347 99.8633 61.0394 100.012 56.9938C100.196 52.0227 100.264 51.8897 102.876 51.4046C104.576 51.0883 105.728 50.253 105.728 49.3351C105.728 49.1119 105.464 48.6036 105.142 48.2057C104.433 47.3301 102.704 47.2891 100.885 48.1045C99.8229 48.5804 99.6334 48.5867 99.1387 48.1619C98.4247 47.5488 97.789 47.3571 96.9962 47.5155ZM49.8475 51.3988C50.1967 51.7481 50.4825 52.3196 50.4825 52.6688C50.4825 53.2508 50.2707 53.3038 47.9425 53.3038C46.5455 53.3038 45.4025 53.2254 45.4025 53.1292C45.4025 52.6936 46.3826 51.1223 46.7452 50.9763C47.7145 50.5864 49.2433 50.7946 49.8475 51.3988ZM114.127 51.2785C115.575 51.8341 116.085 55.7892 114.949 57.6523C113.759 59.6043 111.078 59.2998 109.939 57.0834C109.107 55.4638 109.732 52.1872 111.016 51.4411C111.667 51.0623 113.336 50.9753 114.127 51.2785ZM88.5825 56.4947C88.5825 57.1253 87.6529 58.6248 87.1395 58.8217C86.3013 59.1433 84.9274 59.0468 84.5185 58.6378C83.9572 58.0765 84.0553 56.8757 84.6931 56.5042C85.4329 56.0734 88.5825 56.0658 88.5825 56.4947Z" fill="#E28B07"/>
<path d="M130.65 38.1367C130.65 40.6293 128.629 42.65 126.137 42.65C123.644 42.65 121.623 40.6293 121.623 38.1367C121.623 35.6441 123.644 33.6234 126.137 33.6234C128.629 33.6234 130.65 35.6441 130.65 38.1367Z" stroke="#E28B07" stroke-width="0.7"/>
<path d="M127.31 36.1103C127.477 36.1793 127.614 36.2621 127.72 36.3862C127.811 36.4828 127.887 36.5931 127.948 36.7172C128.009 36.8414 128.024 36.9793 128.024 37.1448C128.024 37.3379 127.978 37.5172 127.872 37.7103C127.766 37.9034 127.599 38.0276 127.356 38.0966C127.553 38.1655 127.705 38.2759 127.781 38.4138C127.872 38.5517 127.903 38.7586 127.903 39.0345V39.2966C127.903 39.4759 127.918 39.6 127.933 39.669C127.963 39.7655 128.009 39.8483 128.1 39.9034V40H127.082C127.052 39.9172 127.037 39.8345 127.022 39.7793C126.991 39.669 126.991 39.5586 126.976 39.4345V39.0621C126.976 38.8138 126.93 38.6345 126.824 38.5517C126.733 38.469 126.551 38.4276 126.292 38.4276H125.396V40H124.5V36H126.611C126.915 36.0138 127.158 36.0552 127.31 36.1103V36.1103ZM125.411 36.7034V37.7793H126.399C126.596 37.7793 126.748 37.7517 126.839 37.7103C127.006 37.6276 127.097 37.4897 127.097 37.2552C127.097 37.0069 127.006 36.8552 126.839 36.7724C126.748 36.731 126.596 36.7034 126.414 36.7034H125.411Z" fill="#E28B07"/>
</svg>
